<?xml version="1.0" encoding="UTF-8"?>
<!-- Generator: visioncortex VTracer 0.6.4 -->
<svg version="1.1" xmlns="http://www.w3.org/2000/svg" width="632" height="216">
<path d="M0,0 L4,1 L6,16 L18,23 L22,27 L27,30 L27,56 L32,54 L38,54 L57,64 L52,69 L36,82 L22,93 L6,106 L-7,116 L-12,121 L-22,137 L-32,151 L-38,149 L-56,138 L-57,137 L-58,116 L-65,122 L-70,131 L-71,136 L-62,136 L-61,141 L-62,142 L-71,143 L-68,151 L-59,161 L-54,164 L-48,161 L-45,162 L-45,164 L-50,166 L-50,168 L-45,170 L-47,175 L-50,179 L-56,178 L-66,172 L-76,163 L-83,153 L-85,148 L-86,138 L-83,126 L-75,115 L-64,106 L-59,103 L-57,103 L-57,70 L-44,62 L-32,55 L-26,57 L-24,58 L-24,30 L-17,26 L-15,26 L-15,23 L-3,16 L-2,1 Z " fill="#0A3C66" transform="translate(98,10)"/>
<path d="M0,0 L4,0 L1,14 L-4,32 L-11,26 L-14,26 L-29,51 L-42,72 L-58,99 L-64,107 L-80,116 L-107,132 L-122,141 L-135,149 L-137,148 L-130,138 L-101,94 L-91,79 L-78,68 L-61,55 L-48,44 L-34,33 L-23,24 L-19,21 L-20,18 L-26,14 L-25,11 Z M-79,84 L-83,87 L-83,95 L-79,98 L-73,98 L-69,94 L-69,88 L-73,84 Z " fill="#2E9777" transform="translate(182,53)"/>
<path d="M0,0 L15,8 L22,12 L29,11 L48,0 L49,0 L50,26 L52,26 L52,24 L61,23 L80,33 L75,38 L59,51 L45,62 L29,75 L24,79 L20,79 L18,81 L17,39 L1,30 L0,29 Z " fill="#1C5C95" transform="translate(75,41)"/>
<path d="M0,0 L2,0 L2,4 L8,6 L21,16 L28,26 L31,34 L31,47 L28,56 L21,65 L12,73 L0,80 L-19,87 L-35,90 L-46,91 L-65,91 L-86,88 L-87,85 L-75,78 L-60,80 L-60,74 L-59,73 L-52,73 L-52,80 L-26,76 L-11,71 L-5,69 L-10,63 L-6,62 L-2,64 L4,63 L12,55 L16,47 L17,43 L7,43 L7,37 L17,37 L13,26 L7,19 L3,16 L2,28 L-11,36 L-23,43 L-25,42 L-19,31 L-6,10 Z " fill="#2C6394" transform="translate(155,109)"/>
<path d="M0,0 L55,0 L55,14 L18,14 L18,31 L51,31 L51,45 L18,45 L18,70 L17,71 L0,71 Z " fill="#33342F" transform="translate(224,88)"/>
<path d="M0,0 L1,0 L0,7 L-16,33 L-33,61 L-43,78 L-48,82 L-62,90 L-89,106 L-100,113 L-104,112 L-104,109 L-79,84 L-71,77 L-65,71 L-55,71 L-52,68 L-52,59 L-46,51 L-34,38 L-22,24 L-11,12 L-3,2 Z M-106,111 Z M-108,112 L-106,112 L-106,114 L-109,113 Z " fill="#228266" transform="translate(164,79)"/>
<path d="M0,0 L4,1 L6,16 L18,23 L22,27 L27,30 L27,56 L29,57 L26,58 L25,32 L9,41 L4,44 L-3,43 L-22,32 L-22,60 L-6,69 L-6,71 L-26,82 L-29,84 L-34,83 L-52,73 L-56,69 L-32,55 L-26,57 L-24,58 L-24,30 L-17,26 L-15,26 L-15,23 L-3,16 L-2,1 Z " fill="#3C76AA" transform="translate(98,10)"/>
<path d="M0,0 L9,0 L17,16 L31,45 L42,68 L42,71 L33,71 L25,55 L24,53 L8,53 L-15,54 L-23,71 L-32,71 L-31,66 L-16,34 L-1,1 Z M4,10 L-11,42 L-11,45 L21,45 L11,22 L5,10 Z " fill="#383933" transform="translate(579,88)"/>
<path d="M0,0 L9,0 L21,3 L30,9 L30,13 L27,16 L23,15 L14,10 L9,9 L0,9 L-9,12 L-15,16 L-21,23 L-23,29 L-23,44 L-18,54 L-11,60 L-5,63 L0,64 L9,64 L19,61 L22,59 L22,37 L23,36 L31,36 L31,64 L23,69 L15,72 L1,73 L-9,71 L-19,66 L-24,62 L-31,51 L-33,44 L-33,29 L-29,18 L-22,10 L-16,5 L-6,1 Z " fill="#363732" transform="translate(403,87)"/>
<path d="M0,0 L9,0 L10,48 L14,57 L19,61 L26,63 L34,63 L42,60 L47,55 L49,49 L50,1 L51,0 L59,0 L59,50 L55,60 L51,65 L42,70 L32,72 L20,71 L10,66 L3,58 L0,49 Z " fill="#393A35" transform="translate(451,88)"/>
<path d="M0,0 L1,0 L2,40 L5,39 L3,43 L-4,48 L-16,67 L-26,81 L-32,79 L-33,77 L-25,78 L-25,14 Z " fill="#216099" transform="translate(92,80)"/>
<path d="M0,0 L17,0 L17,71 L0,71 L-1,70 L-1,1 Z " fill="#343530" transform="translate(320,88)"/>
<path d="M0,0 L2,1 L3,10 L3,34 L2,34 L1,13 L-6,19 L-11,28 L-12,33 L-3,33 L-2,38 L-3,39 L-12,40 L-9,48 L0,58 L5,61 L11,58 L14,59 L14,61 L9,63 L9,65 L14,67 L12,72 L9,76 L3,75 L-7,69 L-17,60 L-24,50 L-26,45 L-27,35 L-24,23 L-16,12 L-5,3 Z " fill="#2F6594" transform="translate(39,113)"/>
<path d="M0,0 L17,0 L17,71 L0,71 Z " fill="#2C2D28" transform="translate(288,88)"/>
<path d="M0,0 L15,8 L25,14 L25,75 L24,79 L20,79 L18,81 L17,39 L1,30 L0,29 Z " fill="#053863" transform="translate(75,41)"/>
<path d="M0,0 L8,0 L9,1 L9,70 L8,71 L0,71 Z " fill="#3B3C37" transform="translate(529,88)"/>
<path d="M0,0 L4,1 L6,16 L18,23 L18,31 L4,39 L-3,38 L-15,31 L-15,23 L-3,16 L-2,1 Z " fill="#4179AA" transform="translate(98,10)"/>
<path d="M0,0 L3,0 L3,49 L0,50 L-1,47 L-1,1 Z " fill="#033763" transform="translate(115,55)"/>
<path d="M0,0 L5,2 L17,9 L17,15 L12,14 L0,7 Z " fill="#043967" transform="translate(83,34)"/>
<path d="M0,0 L8,4 L8,13 L2,18 L0,18 Z " fill="#0C3C64" transform="translate(125,79)"/>
<path d="M0,0 L2,1 L2,7 L-12,15 L-14,15 L-14,9 Z " fill="#1C5C97" transform="translate(114,34)"/>
<path d="M0,0 L4,1 L-13,15 L-14,15 L-14,5 L-7,2 Z " fill="#256399" transform="translate(147,77)"/>
<path d="M0,0 L4,0 L4,14 L3,24 L0,24 Z " fill="#0C3D6A" transform="translate(97,12)"/>
<path d="M0,0 L2,0 L2,6 L-10,12 L-13,13 L-13,8 L-5,3 Z " fill="#033763" transform="translate(86,105)"/>
<path d="M0,0 L2,0 L2,5 L-12,13 L-13,13 L-13,7 Z " fill="#043C6E" transform="translate(86,93)"/>
<path d="M0,0 L6,2 L16,7 L15,12 L10,10 L-1,4 L-2,2 L0,2 Z " fill="#2B69A0" transform="translate(84,42)"/>
<path d="M0,0 L6,2 L15,7 L15,13 L3,7 L0,5 Z " fill="#1C588C" transform="translate(47,114)"/>
<path d="M0,0 L6,2 L15,7 L15,12 L10,11 L0,5 Z " fill="#1B5A91" transform="translate(47,103)"/>
<path d="M0,0 L2,0 L3,8 L0,9 L-5,6 L-6,34 L-7,34 L-7,4 Z " fill="#447094" transform="translate(81,36)"/>
<path d="M0,0 L5,1 L15,6 L15,12 L10,10 L0,4 Z " fill="#1B568B" transform="translate(47,93)"/>
<path d="M0,0 L3,3 L2,10 L2,33 L0,34 Z " fill="#0C3356" transform="translate(42,80)"/>
<path d="M0,0 L16,1 L34,2 L34,4 L15,4 L6,2 L0,1 Z " fill="#4E7699" transform="translate(75,196)"/>
<path d="M0,0 L1,0 L2,40 L5,39 L3,43 L0,43 Z " fill="#175083" transform="translate(92,80)"/>
<path d="M0,0 L5,1 L11,3 L10,5 L6,5 L6,7 L4,7 L-1,1 Z " fill="#62849E" transform="translate(146,171)"/>
<path d="M0,0 L2,1 L1,4 L-1,5 L-4,10 L-7,12 L-9,10 L-2,3 Z " fill="#467298" transform="translate(169,161)"/>
<path d="M0,0 L1,2 L0,5 L3,6 L-5,11 L-7,10 Z " fill="#6AA18E" transform="translate(52,191)"/>
<path d="M0,0 L2,1 L9,0 L6,3 L-1,7 L-3,6 Z " fill="#597D9A" transform="translate(133,145)"/>
<path d="M0,0 L4,1 L3,5 L-2,7 L-2,1 Z " fill="#033461" transform="translate(75,99)"/>
<path d="M0,0 L2,2 L1,7 L-3,9 L-8,6 L-4,5 L0,6 Z " fill="#456580" transform="translate(67,152)"/>
<path d="M0,0 L1,4 L0,5 L-10,5 L-10,3 L-2,3 L-2,1 Z " fill="#537998" transform="translate(36,147)"/>
<path d="M0,0 L10,0 L10,1 L4,2 L10,3 L10,4 L0,4 Z " fill="#194D7B" transform="translate(163,147)"/>
<path d="M0,0 L1,0 L2,13 L3,18 L-1,14 Z " fill="#676963" transform="translate(378,118)"/>
<path d="M0,0 L2,1 L-1,6 L-4,7 L-5,10 L-7,10 L-5,6 Z " fill="#527B9D" transform="translate(25,123)"/>
<path d="M0,0 L10,0 L8,1 L8,3 L0,3 Z " fill="#1A5185" transform="translate(26,147)"/>
<path d="M0,0 L1,0 L2,13 L5,12 L3,16 L0,16 Z " fill="#25537A" transform="translate(92,107)"/>
<path d="M0,0 L3,0 L1,5 L-2,9 L-3,3 Z " fill="#468F7A" transform="translate(162,82)"/>
<path d="M0,0 L4,0 L2,11 L1,11 L0,3 L-2,1 Z " fill="#73B09C" transform="translate(182,53)"/>
<path d="M0,0 L1,4 L-3,12 L-5,12 L-3,6 Z " fill="#4B4C46" transform="translate(563,122)"/>
<path d="M0,0 L4,1 L-3,6 L-3,3 L-5,2 Z " fill="#45759E" transform="translate(147,77)"/>
<path d="M0,0 L7,6 L7,9 L0,3 Z " fill="#3F6A90" transform="translate(21,169)"/>
<path d="M0,0 L2,1 L3,3 L-2,6 L-5,5 L-5,3 L-1,3 Z " fill="#3F8B77" transform="translate(59,190)"/>
<path d="M0,0 L3,1 L3,3 L-2,5 L-4,2 Z " fill="#587790" transform="translate(50,171)"/>
<path d="M0,0 L6,2 L6,3 L-5,4 Z " fill="#7195B1" transform="translate(66,65)"/>
<path d="M0,0 L2,0 L2,4 L-3,8 L-3,5 Z " fill="#62849F" transform="translate(155,109)"/>
<path d="M0,0 L4,1 L0,5 L-3,5 L-1,1 Z " fill="#4C9C83" transform="translate(129,101)"/>
<path d="M0,0 L3,1 L-4,7 L-3,3 Z " fill="#2D2E29" transform="translate(382,96)"/>
<path d="M0,0 L3,1 L-4,6 L-3,1 Z " fill="#547D9C" transform="translate(137,86)"/>
<path d="M0,0 L2,1 L-1,4 L-5,6 L-7,4 Z " fill="#5E88A9" transform="translate(90,29)"/>
</svg>
